<?xml version="1.0" standalone="no"?>
<!DOCTYPE svg PUBLIC "-//W3C//DTD SVG 20010904//EN"
 "http://www.w3.org/TR/2001/REC-SVG-20010904/DTD/svg10.dtd">
<svg version="1.0" xmlns="http://www.w3.org/2000/svg"
 width="456.000000pt" height="456.000000pt" viewBox="0 0 456.000000 456.000000"
 preserveAspectRatio="xMidYMid meet">

<g transform="translate(0.000000,456.000000) scale(0.100000,-0.100000)"
fill="#000000" stroke="none">
<path d="M3445 3912 c-60 -32 -267 -138 -460 -236 -192 -98 -386 -198 -430
-221 -44 -23 -165 -86 -270 -140 -104 -54 -248 -128 -320 -165 -334 -174 -610
-317 -710 -370 -60 -32 -184 -97 -275 -144 -148 -78 -172 -94 -237 -161 -40
-43 -84 -100 -100 -132 l-28 -58 0 -635 0 -635 32 -66 c40 -80 120 -159 200
-197 l58 -27 1315 -3 c877 -2 1341 1 1394 8 132 17 230 90 294 218 l37 76 0
625 0 626 -32 68 c-37 78 -110 155 -187 195 l-51 27 -575 6 c-316 4 -818 7
-1115 8 -297 1 -605 4 -684 8 -169 7 -172 -1 39 110 80 42 177 93 215 113 39
21 131 69 205 107 251 131 644 335 800 415 85 44 209 109 275 143 66 34 188
97 270 140 363 189 491 258 510 276 18 18 19 21 5 47 -24 42 -54 38 -175 -26z
m236 -1464 c68 -36 108 -77 144 -148 l25 -49 0 -603 c0 -568 -2 -605 -19 -644
-26 -57 -85 -120 -146 -155 l-50 -29 -1353 0 c-1349 0 -1353 0 -1393 21 -59
30 -127 96 -155 151 l-24 47 0 611 c0 598 0 612 21 651 25 50 93 126 131 145
15 8 51 18 80 23 29 5 644 9 1367 10 l1313 1 59 -32z"/>
<path d="M1159 2275 c-110 -40 -199 -116 -243 -207 -35 -74 -46 -175 -46 -431
0 -279 11 -372 52 -449 39 -73 121 -151 195 -186 l58 -27 495 -3 c619 -4 628
-3 752 116 116 110 132 189 126 607 -4 244 -6 276 -25 328 -44 118 -134 207
-250 246 -60 20 -80 21 -570 20 -393 0 -516 -3 -544 -14z m689 -92 c-76 -2
-200 -2 -275 0 -76 1 -14 3 137 3 151 0 213 -2 138 -3z m467 -43 c31 -19 105
-105 105 -122 0 -4 -320 -8 -711 -8 -467 0 -710 3 -707 10 7 21 74 98 103 118
29 20 41 21 604 21 557 1 575 0 606 -19z m118 -157 c2 -5 7 -25 11 -45 l7 -38
-740 0 -740 0 5 33 c3 17 7 38 10 45 3 9 156 12 723 12 396 0 722 -3 724 -7z
m-128 -103 c61 -3 -207 -6 -595 -6 -388 0 -660 3 -605 6 140 9 1067 9 1200 0z
m-282 -37 c-166 -2 -440 -2 -610 0 -169 1 -33 2 302 2 336 0 474 -1 308 -2z
m327 -33 c36 -4 -252 -7 -640 -7 -388 0 -676 3 -640 7 90 9 1200 9 1280 0z
m-323 -37 c-174 -2 -460 -2 -635 0 -174 1 -31 2 318 2 349 0 492 -1 317 -2z
m178 -34 c-49 -4 -272 -7 -495 -7 -223 0 -445 3 -495 7 -50 5 170 8 495 8 325
0 545 -3 495 -8z m65 -29 c87 -3 -160 -6 -560 -6 -393 0 -652 3 -575 6 199 8
951 9 1135 0z m-254 -42 c-173 -5 -441 -5 -610 0 -280 8 -259 9 309 9 574 0
592 -1 301 -9z m329 -28 c39 -4 -247 -7 -635 -7 -388 0 -676 3 -640 7 89 9
1188 9 1275 0z m-307 -37 c-181 -2 -475 -2 -655 0 -181 1 -33 2 327 2 360 0
508 -1 328 -2z m212 -34 c-58 -10 -1009 -10 -1075 1 -27 4 213 7 535 7 323 0
565 -3 540 -8z m-20 -29 c118 -4 -86 -6 -520 -6 -393 0 -636 3 -540 6 252 8
832 8 1060 0z m-212 -42 c-176 -5 -440 -5 -615 0 -290 8 -272 9 307 9 579 0
597 -1 308 -9z m312 -27 c47 -5 -232 -8 -620 -8 -388 0 -671 3 -630 7 106 9
1148 10 1250 1z m-287 -38 c-183 -2 -483 -2 -665 0 -183 1 -34 2 332 2 366 0
515 -1 333 -2z m237 -33 c-9 -6 -229 -10 -570 -10 -341 0 -561 4 -570 10 -10
6 189 10 570 10 381 0 580 -4 570 -10z m165 -50 l0 -25 -733 -3 c-645 -2 -733
0 -738 13 -4 8 -4 22 0 30 5 13 93 15 738 13 l733 -3 0 -25z m-95 -50 c41 -4
-247 -7 -640 -7 -393 0 -683 3 -645 7 96 9 1192 9 1285 0z m60 -69 c-25 -49
-80 -104 -127 -126 -32 -16 -89 -17 -572 -17 -353 0 -545 4 -563 11 -40 15
-116 89 -139 133 l-19 38 720 0 720 0 -20 -39z"/>
<path d="M1300 2130 c63 -4 248 -7 410 -7 162 0 347 3 410 7 66 4 -110 7 -410
7 -300 0 -476 -3 -410 -7z"/>
<path d="M1255 2100 c-27 -4 177 -7 455 -7 278 0 480 3 450 7 -68 10 -836 9
-905 0z"/>
<path d="M1402 2063 c170 -2 446 -2 615 0 170 1 31 2 -307 2 -338 0 -477 -1
-308 -2z"/>
<path d="M1150 2030 c14 -4 266 -8 560 -8 294 0 546 4 560 8 14 4 -238 8 -560
8 -322 0 -574 -4 -560 -8z"/>
<path d="M1140 1960 c36 -4 292 -8 570 -8 278 0 534 4 570 8 36 4 -221 7 -570
7 -349 0 -606 -3 -570 -7z"/>
<path d="M1220 1930 c-52 -3 168 -6 490 -6 322 -1 538 3 480 6 -126 9 -837 9
-970 0z"/>
<path d="M1110 1350 c-19 -4 251 -7 600 -8 360 0 618 4 595 9 -49 10 -1146 9
-1195 -1z"/>
<path d="M1370 1250 c-191 -4 -88 -6 340 -7 338 -1 611 0 605 2 -19 7 -673 10
-945 5z"/>
<path d="M1388 1213 c177 -2 467 -2 645 0 177 1 32 2 -323 2 -355 0 -500 -1
-322 -2z"/>
<path d="M1165 1180 c-22 -4 223 -7 545 -7 323 0 565 3 540 8 -55 9 -1030 9
-1085 -1z"/>
<path d="M1438 1143 c156 -2 408 -2 560 0 152 1 25 2 -283 2 -308 0 -433 -1
-277 -2z"/>
<path d="M1240 1110 c34 -11 920 -11 945 0 11 5 -190 8 -475 8 -272 0 -484 -4
-470 -8z"/>
<path d="M2873 2231 c-185 -6 -195 -10 -208 -62 -10 -39 21 -70 81 -80 70 -11
787 -11 859 1 36 6 65 17 73 27 19 26 14 67 -10 90 -22 20 -37 21 -323 26
-165 2 -377 1 -472 -2z"/>
<path d="M2748 1190 c-14 -10 -31 -33 -37 -49 -24 -56 35 -121 110 -121 40 0
99 56 99 95 0 17 -12 39 -34 61 -27 27 -42 34 -74 34 -24 0 -49 -8 -64 -20z"/>
<path d="M3098 1190 c-40 -31 -53 -72 -34 -107 20 -39 38 -53 78 -59 66 -11
121 34 121 98 0 71 -106 115 -165 68z"/>
<path d="M3444 1176 c-19 -19 -34 -44 -34 -56 0 -84 119 -131 180 -70 43 43
37 110 -13 140 -50 31 -93 26 -133 -14z"/>
</g>
</svg>
