<?xml version="1.0" standalone="no"?>
<!DOCTYPE svg PUBLIC "-//W3C//DTD SVG 20010904//EN"
 "http://www.w3.org/TR/2001/REC-SVG-20010904/DTD/svg10.dtd">
<svg version="1.0" xmlns="http://www.w3.org/2000/svg"
 width="456.000000pt" height="456.000000pt" viewBox="0 0 456.000000 456.000000"
 preserveAspectRatio="xMidYMid meet">

<g transform="translate(0.000000,456.000000) scale(0.100000,-0.100000)"
fill="#000000" stroke="none">
<path d="M3025 3546 c-497 -257 -573 -297 -775 -403 -111 -59 -294 -154 -435
-228 -98 -51 -214 -112 -365 -192 -41 -22 -124 -66 -185 -97 -81 -42 -124 -73
-164 -114 -95 -99 -91 -66 -91 -635 0 -481 1 -500 20 -543 25 -53 85 -115 138
-140 65 -31 229 -35 1162 -31 896 3 967 6 990 36 3 3 18 15 33 24 35 23 86 93
104 144 10 29 13 145 13 506 0 522 -1 529 -67 607 -20 23 -54 54 -77 68 l-41
27 -695 7 c-382 4 -771 9 -865 10 l-170 3 105 56 c203 109 306 163 365 193 33
16 62 32 65 35 3 3 50 28 105 55 55 28 102 52 105 55 3 3 50 28 105 56 55 27
102 52 105 55 3 3 39 22 80 43 41 20 120 61 175 90 55 29 162 85 237 125 236
124 233 122 236 171 4 53 -18 81 -62 80 -17 0 -85 -29 -151 -63z m198 -1113
c45 -25 78 -61 105 -111 22 -43 22 -48 22 -448 0 -382 -1 -407 -20 -443 -24
-49 -69 -93 -113 -115 -32 -14 -123 -16 -981 -16 -924 0 -948 0 -984 20 -53
28 -65 40 -95 87 l-27 43 0 422 0 423 26 44 c26 46 43 62 98 94 29 16 95 17
984 17 890 0 956 -1 985 -17z"/>
<path d="M1400 2364 c-25 -9 -52 -22 -61 -30 -8 -8 -20 -14 -25 -14 -5 -1 -20
-15 -34 -31 -14 -17 -33 -40 -42 -51 -10 -12 -18 -28 -18 -38 0 -9 -6 -22 -12
-28 -10 -10 -13 -84 -13 -305 l1 -292 27 -57 c17 -34 46 -72 72 -94 89 -74 54
-69 525 -69 378 0 429 2 460 17 61 29 120 88 148 147 l27 56 0 291 c0 198 -4
295 -11 305 -6 8 -14 25 -17 39 -10 39 -77 107 -137 137 l-55 28 -395 2 c-338
2 -401 0 -440 -13z m128 -21 c-10 -2 -28 -2 -40 0 -13 2 -5 4 17 4 22 1 32 -1
23 -4z m640 0 c-10 -2 -26 -2 -35 0 -10 3 -2 5 17 5 19 0 27 -2 18 -5z m-285
-80 c-29 -2 -78 -2 -110 0 -32 2 -8 3 52 3 61 0 87 -1 58 -3z m391 -37 c17
-13 39 -38 49 -55 l18 -31 -515 0 c-284 0 -516 2 -516 5 0 3 21 28 46 55 l47
50 420 0 420 0 31 -24z m69 -106 c3 -3 8 -17 12 -33 l7 -27 -537 0 c-486 0
-537 2 -531 16 3 9 6 22 6 29 0 10 17 15 58 18 82 6 979 3 985 -3z m-285 -77
c-125 -2 -332 -2 -460 0 -128 1 -26 2 227 2 253 0 358 -1 233 -2z m-45 -30
c-100 -2 -266 -2 -370 0 -103 1 -21 2 182 2 204 0 288 -1 188 -2z m35 -20
c-119 -2 -317 -2 -440 0 -123 1 -25 2 217 2 242 0 342 -1 223 -2z m-15 -30
c-111 -2 -295 -2 -410 0 -114 1 -23 2 202 2 226 0 319 -1 208 -2z m5 -20
c-114 -2 -303 -2 -420 0 -117 1 -24 2 207 2 231 0 327 -1 213 -2z m40 -30
c-136 -2 -361 -2 -500 0 -139 1 -28 2 247 2 275 0 389 -1 253 -2z m-35 -20
c-117 -2 -309 -2 -425 0 -117 1 -22 2 212 2 234 0 329 -1 213 -2z m40 -30
c-138 -2 -368 -2 -510 0 -142 1 -28 2 252 2 281 0 397 -1 258 -2z m-40 -20
c-116 -2 -310 -2 -430 0 -120 1 -24 2 212 2 237 0 335 -1 218 -2z m-10 -30
c-111 -2 -295 -2 -410 0 -114 1 -23 2 202 2 226 0 319 -1 208 -2z m35 -20
c-130 -2 -346 -2 -480 0 -134 1 -27 2 237 2 264 0 373 -1 243 -2z m-55 -30
c-100 -2 -266 -2 -370 0 -103 1 -21 2 182 2 204 0 288 -1 188 -2z m35 -20
c-119 -2 -317 -2 -440 0 -123 1 -25 2 217 2 242 0 342 -1 223 -2z m-15 -30
c-111 -2 -295 -2 -410 0 -114 1 -23 2 202 2 226 0 319 -1 208 -2z m5 -20
c-114 -2 -303 -2 -420 0 -117 1 -24 2 207 2 231 0 327 -1 213 -2z m322 -38 c0
-13 -66 -15 -535 -15 -469 0 -535 2 -535 15 0 13 66 15 535 15 469 0 535 -2
535 -15z m-210 -35 c137 -4 40 -6 -325 -6 -291 0 -443 3 -345 6 251 8 447 8
670 0z m190 -36 c0 -9 -22 -39 -49 -65 -47 -48 -50 -49 -107 -48 -42 0 -53 3
-39 9 12 5 -121 9 -319 9 -187 1 -336 -2 -332 -6 4 -5 146 -11 314 -14 l307
-6 -346 1 -346 2 -38 28 c-33 26 -75 80 -75 99 0 4 232 7 515 7 471 0 515 -1
515 -16z"/>
<path d="M1535 2230 c-4 -7 95 -10 290 -10 195 0 294 3 290 10 -4 6 -112 10
-290 10 -178 0 -286 -4 -290 -10z"/>
<path d="M1647 2203 c94 -2 252 -2 350 0 98 1 21 2 -172 2 -192 1 -273 -1
-178 -2z"/>
<path d="M1495 2180 c40 -10 633 -10 665 0 14 4 -137 8 -335 8 -198 0 -346 -4
-330 -8z"/>
<path d="M1623 2153 c115 -2 299 -2 410 0 111 1 18 2 -208 2 -225 0 -316 -1
-202 -2z"/>
<path d="M1598 2103 c128 -2 335 -2 460 0 125 1 20 2 -233 2 -253 0 -355 -1
-227 -2z"/>
<path d="M1700 2080 c69 -5 181 -5 250 0 108 6 90 7 -125 7 -215 0 -233 -1
-125 -7z"/>
<path d="M1603 1653 c126 -2 328 -2 450 0 122 1 20 2 -228 2 -247 0 -347 -1
-222 -2z"/>
<path d="M1708 1583 c68 -2 176 -2 240 0 64 1 9 3 -123 3 -132 0 -185 -2 -117
-3z"/>
<path d="M1608 1553 c123 -2 321 -2 440 0 119 1 19 2 -223 2 -242 0 -340 -1
-217 -2z"/>
<path d="M1515 1530 c33 -4 173 -8 310 -8 138 0 277 4 310 8 34 4 -101 7 -310
7 -209 0 -344 -3 -310 -7z"/>
<path d="M1633 1503 c108 -2 286 -2 395 0 108 1 19 2 -198 2 -217 0 -306 -1
-197 -2z"/>
<path d="M2637 2331 c-144 -7 -147 -8 -147 -82 0 -89 -22 -84 395 -84 l367 0
19 24 c24 29 24 89 1 118 -16 21 -25 22 -262 26 -135 2 -303 2 -373 -2z"/>
<path d="M2530 1548 c-50 -82 0 -168 98 -168 29 0 49 7 69 24 24 21 28 31 28
79 0 80 -19 97 -107 97 -66 0 -69 -1 -88 -32z"/>
<path d="M2790 1558 c-15 -16 -20 -35 -20 -73 0 -73 30 -100 107 -99 48 0 59
4 79 28 33 38 34 113 1 144 -34 32 -137 32 -167 0z"/>
<path d="M3047 1559 c-45 -51 -28 -141 31 -166 44 -18 113 -10 137 17 10 11
20 41 22 67 4 39 1 53 -17 76 -20 25 -27 27 -89 27 -55 0 -70 -4 -84 -21z"/>
</g>
</svg>
