<?xml version="1.0" encoding="UTF-8"?>
<!DOCTYPE svg PUBLIC "-//W3C//DTD SVG 1.1//EN" "http://www.w3.org/Graphics/SVG/1.1/DTD/svg11.dtd">
<svg version="1.1" xmlns="http://www.w3.org/2000/svg" xmlns:xlink="http://www.w3.org/1999/xlink" x="0" y="0" width="100" height="59" viewBox="0, 0, 100, 59">
  <g id="Background">
    <rect x="0" y="0" width="100" height="59" fill="#000000" fill-opacity="0"/>
  </g>
  <defs>
    <linearGradient id="Gradient_1" gradientUnits="userSpaceOnUse" x1="0.01" y1="29.387" x2="99.99" y2="29.387">
      <stop offset="0" stop-color="#00BDD2"/>
      <stop offset="1" stop-color="#86DD25"/>
    </linearGradient>
  </defs>
  <g id="Layer_1">
    <path d="M90.355,0.102 L9.626,17.297 C5.781,18.258 0.01,21.138 0.01,29.795 L0.01,29.795 L0.01,45.785 C0.01,51.869 3.914,58.252 11.998,58.735 L11.998,58.735 L88.061,58.735 C94.61,58.362 99.99,54.396 99.99,45.785 L99.99,45.785 L99.99,29.795 C99.99,23.222 96.589,16.815 87.01,16.815 L87.01,16.815 L32.245,16.815 L91.531,3.823 C92.559,3.498 93.129,2.402 92.803,1.374 L92.803,1.374 C92.541,0.542 91.773,0.01 90.944,0.01 L90.944,0.01 C90.749,0.01 90.551,0.04 90.355,0.102 M69.989,45.785 L69.989,29.795 C69.989,26.776 68.883,22.529 65.742,19.801 L65.742,19.801 L87.01,19.801 C93.414,19.801 97.004,24.406 97.004,29.795 L97.004,29.795 L97.004,45.785 C97.004,51.335 93.326,55.779 87.01,55.779 L87.01,55.779 L65.648,55.779 C68.369,53.652 69.989,50.385 69.989,45.785 M49.036,46.113 C47.265,44.342 46.366,42.172 46.366,39.665 L46.366,39.665 L46.366,25.177 C46.366,24.592 46.564,24.096 46.954,23.706 L46.954,23.706 C47.346,23.315 47.84,23.118 48.426,23.118 L48.426,23.118 C48.999,23.118 49.491,23.314 49.892,23.7 L49.892,23.7 C50.296,24.092 50.501,24.589 50.501,25.177 L50.501,25.177 L50.501,32.017 C51.954,31.042 53.628,30.547 55.484,30.547 L55.484,30.547 C57.969,30.547 60.138,31.444 61.929,33.215 L61.929,33.215 C62.815,34.09 63.489,35.08 63.933,36.158 L63.933,36.158 C64.378,37.235 64.602,38.414 64.602,39.665 L64.602,39.665 C64.602,42.193 63.702,44.363 61.929,46.115 L61.929,46.115 C60.138,47.885 57.969,48.783 55.484,48.783 L55.484,48.783 C52.978,48.783 50.808,47.885 49.036,46.113 M19.149,25.177 C19.149,24.591 19.347,24.096 19.738,23.706 L19.738,23.706 C20.128,23.315 20.623,23.118 21.21,23.118 L21.21,23.118 C21.782,23.118 22.275,23.314 22.675,23.7 L22.675,23.7 C23.08,24.093 23.285,24.589 23.285,25.177 L23.285,25.177 L23.285,39.665 C23.285,42.193 22.386,44.363 20.613,46.115 L20.613,46.115 C18.82,47.885 16.651,48.783 14.167,48.783 L14.167,48.783 C11.661,48.783 9.491,47.885 7.719,46.113 L7.719,46.113 C5.947,44.342 5.049,42.172 5.049,39.665 L5.049,39.665 C5.049,37.159 5.947,34.989 7.719,33.216 L7.719,33.216 C9.491,31.446 11.66,30.547 14.167,30.547 L14.167,30.547 C16.002,30.547 17.677,31.04 19.149,32.013 L19.149,32.013 z M28.237,46.113 C26.465,44.341 25.567,42.172 25.567,39.666 L25.567,39.666 C25.567,37.159 26.465,34.99 28.237,33.217 L28.237,33.217 C30.008,31.446 32.178,30.547 34.684,30.547 L34.684,30.547 C37.17,30.547 39.338,31.444 41.13,33.216 L41.13,33.216 C42.903,34.99 43.802,37.159 43.802,39.666 L43.802,39.666 L43.802,46.723 C43.802,47.288 43.599,47.778 43.198,48.179 L43.198,48.179 C42.798,48.58 42.308,48.783 41.743,48.783 L41.743,48.783 C41.166,48.783 40.671,48.58 40.27,48.179 L40.27,48.179 C40.002,47.91 39.821,47.6 39.732,47.253 L39.732,47.253 C39.107,47.671 38.441,48.009 37.748,48.261 L37.748,48.261 C36.796,48.608 35.766,48.783 34.684,48.783 L34.684,48.783 C32.178,48.783 30.008,47.885 28.237,46.113 M81.062,30.474 L81.062,36.283 L75.256,36.283 C74.156,36.283 73.265,37.175 73.265,38.274 L73.265,38.274 C73.265,39.373 74.156,40.265 75.256,40.265 L75.256,40.265 L81.062,40.265 L81.062,46.071 C81.062,47.17 81.954,48.062 83.053,48.062 L83.053,48.062 C84.152,48.062 85.044,47.17 85.044,46.071 L85.044,46.071 L85.044,40.265 L90.85,40.265 C91.949,40.265 92.841,39.373 92.841,38.274 L92.841,38.274 C92.841,37.175 91.949,36.283 90.85,36.283 L90.85,36.283 L85.044,36.283 L85.044,30.474 C85.044,29.374 84.152,28.484 83.053,28.484 L83.053,28.484 C81.954,28.484 81.062,29.374 81.062,30.474 M32.728,35.078 C32.125,35.342 31.594,35.702 31.151,36.15 L31.151,36.15 C30.708,36.597 30.352,37.131 30.09,37.737 L30.09,37.737 C29.832,38.338 29.701,38.987 29.701,39.665 L29.701,39.665 C29.701,40.343 29.832,40.991 30.09,41.592 L30.09,41.592 C30.352,42.199 30.708,42.733 31.151,43.18 L31.151,43.18 C31.593,43.627 32.124,43.987 32.728,44.252 L32.728,44.252 C33.93,44.777 35.422,44.778 36.624,44.252 L36.624,44.252 C37.228,43.989 37.761,43.625 38.211,43.171 L38.211,43.171 C38.659,42.719 39.019,42.184 39.278,41.583 L39.278,41.583 C39.536,40.988 39.667,40.342 39.667,39.665 L39.667,39.665 C39.667,38.989 39.536,38.343 39.278,37.746 L39.278,37.746 C39.018,37.145 38.658,36.61 38.21,36.158 L38.21,36.158 C37.763,35.706 37.229,35.343 36.624,35.078 L36.624,35.078 C36.024,34.816 35.371,34.683 34.685,34.683 L34.685,34.683 C33.987,34.683 33.329,34.816 32.728,35.078 M53.528,35.078 C52.924,35.343 52.392,35.704 51.951,36.15 L51.951,36.15 C51.507,36.596 51.151,37.131 50.89,37.738 L50.89,37.738 C50.632,38.338 50.501,38.987 50.501,39.664 L50.501,39.664 C50.501,40.344 50.632,40.993 50.89,41.592 L50.89,41.592 C51.151,42.199 51.507,42.733 51.95,43.179 L51.95,43.179 C52.392,43.627 52.924,43.989 53.528,44.252 L53.528,44.252 C54.729,44.778 56.222,44.777 57.424,44.252 L57.424,44.252 C58.028,43.989 58.562,43.624 59.01,43.171 L59.01,43.171 C59.459,42.717 59.818,42.183 60.078,41.583 L60.078,41.583 C60.337,40.988 60.467,40.342 60.467,39.664 L60.467,39.664 C60.467,38.988 60.337,38.342 60.078,37.747 L60.078,37.747 C59.817,37.145 59.457,36.611 59.01,36.158 L59.01,36.158 C58.562,35.706 58.028,35.343 57.424,35.078 L57.424,35.078 C56.823,34.816 56.17,34.683 55.484,34.683 L55.484,34.683 C54.787,34.683 54.129,34.816 53.528,35.078 M12.211,35.078 C11.606,35.343 11.075,35.704 10.632,36.15 L10.632,36.15 C10.19,36.598 9.833,37.133 9.574,37.737 L9.574,37.737 C9.315,38.338 9.184,38.987 9.184,39.664 L9.184,39.664 C9.184,40.344 9.315,40.993 9.574,41.592 L9.574,41.592 C9.833,42.197 10.19,42.731 10.632,43.179 L10.632,43.179 C11.075,43.627 11.606,43.987 12.211,44.252 L12.211,44.252 C13.413,44.778 14.906,44.778 16.107,44.252 L16.107,44.252 C16.711,43.989 17.245,43.624 17.693,43.172 L17.693,43.172 C18.141,42.719 18.5,42.185 18.76,41.583 L18.76,41.583 C19.019,40.988 19.149,40.342 19.149,39.664 L19.149,39.664 C19.149,38.988 19.019,38.342 18.76,37.746 L18.76,37.746 C18.5,37.145 18.141,36.611 17.693,36.158 L17.693,36.158 C17.245,35.705 16.712,35.343 16.107,35.078 L16.107,35.078 C15.507,34.816 14.854,34.683 14.167,34.683 L14.167,34.683 C13.47,34.683 12.811,34.816 12.211,35.078" fill="url(#Gradient_1)"/>
  </g>
</svg>